<svg width="24" height="24" viewBox="0 0 24 24" fill="none" xmlns="http://www.w3.org/2000/svg">
<path d="M1.79026 0.130683C0.827263 -0.349232 -0.230736 0.568867 0.0442634 1.6445L2.06026 9.50364C2.11079 9.70116 2.21582 9.87884 2.36231 10.0146C2.5088 10.1504 2.6903 10.2383 2.88426 10.2673L12.7683 11.7405C13.0543 11.7822 13.0543 12.2141 12.7683 12.2569L2.88526 13.729C2.6913 13.758 2.5098 13.8459 2.36331 13.9817C2.21682 14.1175 2.11179 14.2951 2.06126 14.4927L0.0442634 22.356C-0.230736 23.4306 0.827263 24.3487 1.79026 23.8698L23.2882 13.1771C24.2372 12.7055 24.2372 11.295 23.2882 10.8224L1.79026 0.130683Z" fill="white"/>
</svg>
